<svg width="40mm" height="30mm" version="1.1" viewBox="0 0 40 30.000002" xmlns="http://www.w3.org/2000/svg" xmlns:cc="http://creativecommons.org/ns#" xmlns:dc="http://purl.org/dc/elements/1.1/" xmlns:rdf="http://www.w3.org/1999/02/22-rdf-syntax-ns#">
<title>Aggregate multiple git repositories with Antora</title>
<defs>
<filter id="b" x="-.020571" y="-.0288" width="1.0411" height="1.0576" color-interpolation-filters="sRGB">
<feGaussianBlur stdDeviation="0.17197026"/>
</filter>
<filter id="a" x="-.010286" y="-.0144" width="1.0206" height="1.0288" color-interpolation-filters="sRGB">
<feGaussianBlur stdDeviation="0.085985134"/>
</filter>
</defs>
<metadata>
<rdf:RDF>
<cc:Work rdf:about="">
<dc:format>image/svg+xml</dc:format>
<dc:type rdf:resource="http://purl.org/dc/dcmitype/StillImage"/>
<dc:title>Aggregate multiple git repositories with Antora</dc:title>
<dc:creator>
<cc:Agent>
<dc:title>Sarah White</dc:title>
</cc:Agent>
</dc:creator>
<dc:publisher>
<cc:Agent>
<dc:title>OpenDevise Inc.</dc:title>
</cc:Agent>
</dc:publisher>
<dc:subject>
<rdf:Bag>
<rdf:li>Antora</rdf:li>
<rdf:li>documentation</rdf:li>
<rdf:li>static site generator</rdf:li>
</rdf:Bag>
</dc:subject>
<cc:license rdf:resource="http://creativecommons.org/licenses/by-sa/4.0/"/>
</cc:Work>
<cc:License rdf:about="http://creativecommons.org/licenses/by-sa/4.0/">
<cc:permits rdf:resource="http://creativecommons.org/ns#Reproduction"/>
<cc:permits rdf:resource="http://creativecommons.org/ns#Distribution"/>
<cc:requires rdf:resource="http://creativecommons.org/ns#Notice"/>
<cc:requires rdf:resource="http://creativecommons.org/ns#Attribution"/>
<cc:permits rdf:resource="http://creativecommons.org/ns#DerivativeWorks"/>
<cc:requires rdf:resource="http://creativecommons.org/ns#ShareAlike"/>
</cc:License>
</rdf:RDF>
</metadata>
<rect x="9.9684" y="14.969" width="20.063" height="14.331" rx="1.66" ry="1.66" fill="#3d3d3d" filter="url(#a)"/>
<g transform="translate(0,-267)">
<g transform="matrix(.029688 0 0 .029688 23.564 271.53)" fill="#ff6f00" stroke-width="1.1131">
<path d="m128 0c-70.684 0-128 57.307-128 128 0 56.554 36.676 104.53 87.535 121.46 6.3971 1.1849 8.7457-2.7767 8.7457-6.1576 0-3.0523-0.1187-13.135-0.17381-23.831-35.61 7.743-43.124-15.102-43.124-15.102-5.8227-14.795-14.212-18.729-14.212-18.729-11.614-7.9444 0.87541-7.7812 0.87541-7.7812 12.854 0.90297 19.622 13.191 19.622 13.191 11.416 19.569 29.944 13.911 37.249 10.641 1.1488-8.273 4.4661-13.92 8.1267-17.116-28.431-3.2367-58.318-14.212-58.318-63.259 0-13.975 5.0002-25.393 13.188-34.357-1.329-3.224-5.7103-16.243 1.24-33.874 0 0 10.749-3.4402 35.209 13.121 10.21-2.8361 21.16-4.2584 32.038-4.3071 10.878 0.04875 21.837 1.471 32.066 4.3071 24.431-16.561 35.165-13.121 35.165-13.121 6.9673 17.631 2.5838 30.65 1.2548 33.874 8.2073 8.964 13.174 20.382 13.174 34.357 0 49.163-29.944 59.988-58.447 63.157 4.5912 3.9722 8.6821 11.762 8.6821 23.704 0 17.127-0.14837 30.911-0.14837 35.127 0 3.4063 2.304 7.3976 8.7923 6.1406 50.831-16.944 87.461-64.908 87.461-121.44 0-70.694-57.309-128-128-128zm-80.061 182.34c-0.28191 0.63589-1.2824 0.82666-2.1938 0.39002-0.9284-0.41757-1.4498-1.2845-1.1488-1.9225 0.27555-0.65497 1.2781-0.83726 2.2044-0.39849 0.93052 0.41757 1.4604 1.293 1.1382 1.931zm6.2962 5.618c-0.61046 0.56595-1.8038 0.30311-2.6135-0.59138-0.83726-0.89237-0.99411-2.0857-0.37518-2.6602 0.62953-0.56595 1.7869-0.30099 2.6262 0.59138 0.83726 0.90297 1.0005 2.0878 0.36246 2.6602zm4.3195 7.1881c-0.78427 0.54475-2.0667 0.0339-2.8594-1.1043-0.78427-1.1382-0.78427-2.5033 0.01696-3.0502 0.79487-0.54686 2.0582-0.0551 2.8615 1.0747 0.78215 1.1573 0.78215 2.5224-0.01908 3.0798zm7.3051 8.3248c-0.7016 0.77368-2.196 0.56595-3.2897-0.48963-1.1192-1.0323-1.4308-2.4969-0.72704-3.2706 0.71008-0.77579 2.2129-0.55747 3.3151 0.48963 1.1107 1.0302 1.4498 2.5054 0.7016 3.2706zm9.4412 2.8104c-0.30947 1.0026-1.7487 1.4583-3.1985 1.0323-1.4477-0.43877-2.3952-1.613-2.1027-2.6262 0.30099-1.009 1.7466-1.4838 3.207-1.028 1.4456 0.43665 2.3952 1.6024 2.0942 2.622zm10.744 1.1921c0.03603 1.0556-1.1934 1.931-2.7153 1.9501-1.5304 0.0339-2.7683-0.8203-2.7852-1.8589 0-1.0662 1.2018-1.9331 2.7322-1.9586 1.5219-0.0297 2.7683 0.81818 2.7683 1.8674zm10.555-0.40461c0.18229 1.0302-0.87541 2.0878-2.3867 2.3698-1.4859 0.27132-2.8615-0.36457-3.0502-1.3862-0.18441-1.0556 0.89237-2.1133 2.3761-2.3867 1.5134-0.26284 2.8679 0.3561 3.0608 1.4032z" fill="#ff6f00" stroke-width="1.1131"/>
</g>
<g transform="matrix(.03125 0 0 .03125 16 267)" fill="#ff6f00" stroke-width=".90182">
<path d="m251.17 116.59-111.77-111.77c-6.4323-6.4379-16.873-6.4379-23.314 0l-23.21 23.21 29.443 29.443c6.8424-2.3117 14.688-0.7612 20.142 4.6936 5.4801 5.4885 7.0194 13.401 4.6515 20.266l28.375 28.375c6.8649-2.3651 14.786-0.83423 20.269 4.6571 7.6626 7.6598 7.6626 20.075 0 27.74-7.6654 7.6654-20.081 7.6654-27.749 0-5.7638-5.7694-7.1879-14.235-4.2695-21.336l-26.462-26.462-3e-3 69.638c1.8679 0.92693 3.6319 2.16 5.188 3.7105 7.6626 7.6598 7.6626 20.075 0 27.746-7.6654 7.6626-20.086 7.6626-27.74 0-7.6626-7.671-7.6626-20.086 0-27.746 1.8932-1.8904 4.0841-3.3201 6.4211-4.2807v-70.286c-2.337-0.95502-4.5251-2.3763-6.4211-4.2807-5.8059-5.7975-7.202-14.317-4.2274-21.446l-29.021-29.027-76.64 76.634c-6.4407 6.4436-6.4407 16.884 0 23.322l111.77 111.77c6.4351 6.4379 16.873 6.4379 23.316 0l111.25-111.25c6.4379-6.4408 6.4379-16.887 0-23.325" fill="#ff6f00" stroke-width=".90182"/>
</g>
<g transform="translate(0 -1.0583)" fill-rule="evenodd">
<g transform="matrix(.015431 0 0 -.015431 8.7712 279.01)" fill="#fc6d26">
<path d="m492 194.67-27.559 84.815-54.617 168.1c-2.8093 8.648-15.045 8.648-17.856 0l-54.619-168.1h-181.37l-54.62 168.1c-2.8093 8.648-15.045 8.648-17.856 0l-54.617-168.1-27.557-84.815c-2.5147-7.736 0.24-16.211 6.82-20.992l238.51-173.29 238.51 173.29c6.58 4.7813 9.3333 13.256 6.82 20.992" stroke-width="1.074"/>
</g>
<g>
<g transform="matrix(.015431 0 0 -.015431 11.173 279)" fill="#c43e00">
<path d="m91 0l90.684 279.1h-181.37z" fill="#c43e00" stroke-width="1.074"/>
</g>
<g transform="matrix(.015431 0 0 -.015431 9.2032 279)" fill="#ff6f00">
<path d="m218.67 0-90.684 279.09h-127.09z" fill="#ff6f00" stroke-width="1.074"/>
</g>
<g transform="matrix(.015431 0 0 -.015431 8.7643 279.01)" fill="#ffa040">
<path d="m29.333 280l-27.559-84.815c-2.5133-7.736 0.24-16.211 6.8213-20.991l238.51-173.29z" fill="#ffa040" stroke-width="1.074"/>
</g>
<g transform="matrix(.015431 0 0 -.015431 9.217 274.69)" fill="#c43e00">
<path d="m0 0h127.09l-54.619 168.1c-2.8107 8.6493-15.047 8.6493-17.856 0z" fill="#c43e00" stroke-width="1.074"/>
</g>
<g transform="matrix(.015431 0 0 -.015431 12.578 279)" fill="#ff6f00">
<path d="m0 0 90.684 279.09h127.09z" fill="#ff6f00" stroke-width="1.074"/>
</g>
<g transform="matrix(.015431 0 0 -.015431 12.564 279.01)" fill="#ffa040">
<path d="m218.67 280l27.559-84.815c2.5133-7.736-0.24-16.211-6.8213-20.991l-238.51-173.29z" fill="#ffa040" stroke-width="1.074"/>
</g>
<g transform="matrix(.015431 0 0 -.015431 13.963 274.69)" fill="#c43e00">
<path d="m128 0h-127.09l54.619 168.1c2.8107 8.6493 15.047 8.6493 17.856 0z" fill="#c43e00" stroke-width="1.074"/>
</g>
</g>
</g>
<g fill="none" stroke="#ff6f00" stroke-linecap="round" stroke-linejoin="round" stroke-width=".38">
<path d="m27.364 279.94v3.1"/>
<path d="m20 276v8.1"/>
<path d="m12.578 278.94v4.1"/>
</g>
</g>
<g>
<rect x="9.9684" y="14.969" width="20.063" height="14.331" rx="1.66" ry="1.66" fill="#505050"/>
<rect x="9.9684" y="14.969" width="20.063" height="14.331" rx="1.66" ry="1.66" fill="#484848" fill-opacity=".95294" filter="url(#b)"/>
<rect x="10.83" y="15.754" width="18.339" height="12.762" rx=".42" ry=".42" fill="#3d3d3d"/>
</g>
<path d="m18.222 17.496h-6.35" fill="none" stroke="#ff6f00" stroke-linecap="round" stroke-linejoin="round" stroke-width=".24"/>
<rect x="20.885" y="16.897" width="7.3651" height="5.7577" rx=".4" ry=".4" fill="#a1a1a1"/>
<path d="m25.399 18.297c0.36722 0 2.242 3.6572 2.0584 3.9753-0.18361 0.31802-5.7972 0.31802-5.9808 0-0.18361-0.31802 3.5552-3.9753 3.9224-3.9753z" fill="#ff6f00"/>
<g fill="none" stroke="#ff6f00" stroke-linecap="round" stroke-linejoin="round" stroke-width=".24">
<path d="m17.163 19.437h-5.2917"/>
<path d="m17.163 20.437h-5.2917"/>
<path d="m15.047 21.437h-3.175"/>
</g>
<path transform="scale(.26458)" d="m44.779 96.328c-0.20394 0-0.36914 0.16933-0.36914 0.37891v11.066h0.69336v-10.709c0-0.05291 0.04276-0.0957 0.09375-0.0957h60.787c0.051 0 0.0937 0.04279 0.0937 0.0957v10.709h0.69336v-11.066c0-0.20939-0.16512-0.37891-0.36914-0.37891z" fill="#a1a1a1"/>
<path d="m11.958 25.656c-0.01349 0-0.02466 0.0113-0.02466 0.0253v2.8386h16.133v-2.8386c0-0.014-0.01117-0.0253-0.02466-0.0253z" fill="#505050"/>
<g fill="none" stroke="#ff6f00" stroke-linecap="round" stroke-linejoin="round">
<g stroke-width=".2">
<path d="m15.124 26.486h-2.1167"/>
<path d="m17.77 26.486h-1.5875"/>
<path d="m16.912 28.074h-2.1167"/>
<path d="m15.653 27.245h-1.5875"/>
</g>
<path d="m17.163 24.671h-5.2917" stroke-width=".24"/>
<path d="m20.416 26.486h-1.5875" stroke-width=".2"/>
</g>
</svg>
